<svg width="22" height="22" viewBox="0 0 22 22" fill="none" xmlns="http://www.w3.org/2000/svg">
<rect x="4" y="4" width="14" height="14" rx="1.5" fill="#FCA612"/>
<path d="M6.78127 8.93926H6L7.03853 6.27584H8.99171V15.75H6.78127C6.79652 15.75 6.78763 11.2095 6.78127 8.93926Z" fill="white"/>
<path d="M11.8799 9.36832H9.74427V6.46923C9.74427 6.36516 9.87756 6.29694 9.9442 6.27584C11.5891 6.28405 14.9232 6.25 15.1922 6.25C15.4612 6.25 15.515 6.4997 15.4968 6.59933V9.22767C15.4968 9.45271 15.3938 9.73166 15.3423 9.843L12.3979 13.8954H15.4968V15.75C15.4968 15.7428 11.6133 15.747 9.67157 15.75V14.3261L13.3885 9.22767V8.04975H11.8799V9.36832Z" fill="white"/>
</svg>
