<svg width="30" height="30" viewBox="0 0 30 30" fill="none" xmlns="http://www.w3.org/2000/svg">
<path fill-rule="evenodd" clip-rule="evenodd" d="M11.5 9C11.5 9.82843 10.8284 10.5 10 10.5C9.17157 10.5 8.5 9.82843 8.5 9C8.5 8.17157 9.17157 7.5 10 7.5C10.8284 7.5 11.5 8.17157 11.5 9ZM11.6614 10.8681C11.2198 11.2612 10.6378 11.5 10 11.5C8.61929 11.5 7.5 10.3807 7.5 9C7.5 7.61929 8.61929 6.5 10 6.5C11.3807 6.5 12.5 7.61929 12.5 9C12.5 9.38375 12.4135 9.74731 12.259 10.0722L18.0419 13.4456C18.4999 12.8694 19.2068 12.5 20 12.5C21.3807 12.5 22.5 13.6193 22.5 15C22.5 16.3807 21.3807 17.5 20 17.5C19.2124 17.5 18.5098 17.1358 18.0516 16.5665L12.4088 20.3284C12.4682 20.5421 12.5 20.7673 12.5 21C12.5 22.3807 11.3807 23.5 10 23.5C8.61929 23.5 7.5 22.3807 7.5 21C7.5 19.6193 8.61929 18.5 10 18.5C10.7876 18.5 11.4902 18.8642 11.9484 19.4335L17.5912 15.6716C17.5318 15.4579 17.5 15.2327 17.5 15C17.5 14.7711 17.5308 14.5494 17.5884 14.3387L11.7481 10.9319C11.7163 10.9134 11.6874 10.8919 11.6614 10.8681ZM21.5 15C21.5 15.8284 20.8284 16.5 20 16.5C19.1716 16.5 18.5 15.8284 18.5 15C18.5 14.1716 19.1716 13.5 20 13.5C20.8284 13.5 21.5 14.1716 21.5 15ZM10 22.5C10.8284 22.5 11.5 21.8284 11.5 21C11.5 20.1716 10.8284 19.5 10 19.5C9.17157 19.5 8.5 20.1716 8.5 21C8.5 21.8284 9.17157 22.5 10 22.5Z" fill="black"/>
</svg>
