<svg width="28" height="28" viewBox="0 0 28 28" fill="none" xmlns="http://www.w3.org/2000/svg">
<path d="M9.39993 6C8.13493 6 7.00793 6.53958 6.15693 7.38414C5.32893 8.22871 4.79993 9.37825 4.79993 10.692C4.79993 11.9823 5.32893 13.1319 6.15693 13.9999L13.6058 21.5977C13.8222 21.8185 14.1777 21.8185 14.3941 21.5977L21.8429 13.9999C22.6709 13.1553 23.1999 12.0058 23.1999 10.692C23.1999 9.40171 22.6709 8.25217 21.8429 7.38414C21.0149 6.53958 19.8879 6 18.5999 6C17.3349 6 16.2079 6.53958 15.3569 7.38414C14.5289 8.22871 13.9999 9.37825 13.9999 10.692C13.9999 9.40171 13.4709 8.25217 12.6429 7.38414C11.8149 6.53958 10.6879 6 9.39993 6Z" fill="#F45145"/>
</svg>
