<svg width="26" height="26" viewBox="0 0 26 26" fill="none" xmlns="http://www.w3.org/2000/svg">
<path fill-rule="evenodd" clip-rule="evenodd" d="M6.5754 7.52506C7.55171 6.54875 7.55171 4.96583 6.5754 3.98952C6.30028 3.7144 5.97699 3.51681 5.63267 3.39674L8.75738 0.272042L25.7279 17.2426L22.5887 20.3819C21.7214 20.0975 20.7294 20.3 20.0399 20.9895C19.3504 21.679 19.1478 22.6711 19.4322 23.5383L17.2427 25.7279L0.272095 8.75732L2.44708 6.58233C2.56715 6.92665 2.76474 7.24994 3.03986 7.52506C4.01617 8.50137 5.59909 8.50137 6.5754 7.52506ZM8.57539 16.4834L9.2825 15.7763L8.57539 15.0692L7.86829 15.7763L8.57539 16.4834ZM9.98961 15.0692L10.6967 14.3621L9.98961 13.655L9.2825 14.3621L9.98961 15.0692ZM11.4038 13.655L12.1109 12.9479L11.4038 12.2408L10.6967 12.9479L11.4038 13.655ZM12.818 12.2408L13.5251 11.5337L12.818 10.8266L12.1109 11.5337L12.818 12.2408ZM14.2322 10.8266L14.9394 10.1195L14.2322 9.41235L13.5251 10.1195L14.2322 10.8266ZM15.6465 9.41235L16 9.0588L15.2929 8.35169L14.9394 8.70525L15.6465 9.41235Z" fill="#F45145"/>
</svg>
