<svg width="22" height="22" viewBox="0 0 22 22" fill="none" xmlns="http://www.w3.org/2000/svg">
<g clip-path="url(#clip0_1080_18800)">
<path d="M16.1917 4H5.80833C4.80962 4 4 4.80962 4 5.80833V16.1917C4 17.1904 4.80962 18 5.80833 18H16.1917C17.1904 18 18 17.1904 18 16.1917V5.80833C18 4.80962 17.1904 4 16.1917 4Z" fill="#269B56"/>
<path d="M8.05052 7.38843H6.58169C6.52394 7.38843 6.47378 7.42809 6.45977 7.48409L4.76344 14.4567C4.74419 14.5354 4.80428 14.6118 4.88536 14.6118H6.49186C6.56128 14.6118 6.61727 14.5558 6.61727 14.4864V13.6721C6.61727 13.6027 6.67327 13.5467 6.74269 13.5467H7.86969C7.93911 13.5467 7.99511 13.6027 7.99511 13.6721V14.4864C7.99511 14.5558 8.05111 14.6118 8.12053 14.6118H9.56719C9.64711 14.6118 9.70661 14.5378 9.68969 14.4596L8.17303 7.48701C8.16078 7.42926 8.10944 7.38843 8.05052 7.38843Z" fill="white"/>
<path d="M7.08326 9.95727L6.81492 11.9949C6.80326 12.0829 6.85809 12.1634 6.93042 12.1634H7.52426C7.59776 12.1634 7.65317 12.08 7.63859 11.9902L7.31309 9.9526C7.28801 9.79393 7.10426 9.79802 7.08326 9.95727Z" fill="#269B56"/>
<path d="M13.3122 14.6111H9.98428C9.92011 14.6111 9.86761 14.5586 9.86761 14.4944V7.50436C9.86761 7.4402 9.92011 7.3877 9.98428 7.3877H11.3178C11.3819 7.3877 11.4344 7.4402 11.4344 7.50436V13.0635C11.4344 13.1277 11.4869 13.1802 11.5511 13.1802H13.3174C13.3822 13.1802 13.4341 13.2327 13.4341 13.2974L13.4289 14.495C13.4289 14.5592 13.3764 14.6111 13.3122 14.6111Z" fill="white"/>
<path d="M17.1157 14.6111H13.7878C13.7236 14.6111 13.6711 14.5586 13.6711 14.4944V7.50436C13.6711 7.4402 13.7236 7.3877 13.7878 7.3877H15.1213C15.1855 7.3877 15.238 7.4402 15.238 7.50436V13.0635C15.238 13.1277 15.2905 13.1802 15.3546 13.1802H17.121C17.1857 13.1802 17.2376 13.2327 17.2376 13.2974L17.2324 14.495C17.2324 14.5592 17.1799 14.6111 17.1157 14.6111Z" fill="white"/>
</g>
<defs>
<clipPath id="clip0_1080_18800">
<rect width="14" height="14" fill="white" transform="translate(4 4)"/>
</clipPath>
</defs>
</svg>
