<svg width="30" height="31" viewBox="0 0 30 31" fill="none" xmlns="http://www.w3.org/2000/svg">
<mask id="path-2-inside-1_1080_18796" fill="white">
<path fill-rule="evenodd" clip-rule="evenodd" d="M3 14L5.17675 11.8233C5.49057 12.5172 6.1889 13 7 13C8.10457 13 9 12.1046 9 11C9 10.1889 8.51717 9.49059 7.82325 9.17678L10.0711 6.92896L22.799 19.6569L20.6238 21.8321C20.2606 21.3281 19.6686 21 19 21C17.8954 21 17 21.8955 17 23C17 23.6686 17.3281 24.2606 17.8321 24.6238L15.7279 26.7279L3 14Z"/>
</mask>
<path d="M5.17675 11.8233L6.08791 11.4112C5.95262 11.1121 5.67911 10.8984 5.35612 10.8395C5.03312 10.7806 4.7018 10.884 4.46965 11.1162L5.17675 11.8233ZM3 14L2.29289 13.2929C1.90237 13.6834 1.90237 14.3166 2.29289 14.7071L3 14ZM7.82325 9.17678L7.11614 8.46967C6.88398 8.70183 6.78058 9.03315 6.83946 9.35614C6.89835 9.67914 7.11204 9.95265 7.41119 10.0879L7.82325 9.17678ZM10.0711 6.92896L10.7782 6.22185C10.5906 6.03431 10.3363 5.92896 10.0711 5.92896C9.80585 5.92896 9.5515 6.03431 9.36396 6.22185L10.0711 6.92896ZM22.799 19.6569L23.5061 20.364C23.8966 19.9735 23.8966 19.3403 23.5061 18.9498L22.799 19.6569ZM20.6238 21.8321L19.8124 22.4167C19.9838 22.6546 20.251 22.8053 20.5433 22.8289C20.8356 22.8525 21.1235 22.7466 21.3309 22.5392L20.6238 21.8321ZM17.8321 24.6238L18.5392 25.3309C18.7465 25.1235 18.8524 24.8356 18.8288 24.5434C18.8053 24.2511 18.6546 23.9839 18.4167 23.8124L17.8321 24.6238ZM15.7279 26.7279L15.0208 27.4351C15.2083 27.6226 15.4627 27.7279 15.7279 27.7279C15.9931 27.7279 16.2475 27.6226 16.435 27.4351L15.7279 26.7279ZM4.46965 11.1162L2.29289 13.2929L3.70711 14.7071L5.88386 12.5304L4.46965 11.1162ZM7 12C6.59599 12 6.24581 11.7604 6.08791 11.4112L4.2656 12.2353C4.73533 13.274 5.78181 14 7 14V12ZM8 11C8 11.5523 7.55228 12 7 12V14C8.65685 14 10 12.6569 10 11H8ZM7.41119 10.0879C7.76034 10.2458 8 10.596 8 11H10C10 9.78184 9.274 8.73535 8.23531 8.26562L7.41119 10.0879ZM9.36396 6.22185L7.11614 8.46967L8.53035 9.88388L10.7782 7.63606L9.36396 6.22185ZM23.5061 18.9498L10.7782 6.22185L9.36396 7.63606L22.0919 20.364L23.5061 18.9498ZM21.3309 22.5392L23.5061 20.364L22.0919 18.9498L19.9166 21.125L21.3309 22.5392ZM19 22C19.3335 22 19.6291 22.1623 19.8124 22.4167L21.4351 21.2475C20.8921 20.4939 20.0037 20 19 20V22ZM18 23C18 22.4477 18.4477 22 19 22V20C17.3431 20 16 21.3432 16 23H18ZM18.4167 23.8124C18.1623 23.6292 18 23.3336 18 23H16C16 24.0037 16.4939 24.8921 17.2475 25.4351L18.4167 23.8124ZM16.435 27.4351L18.5392 25.3309L17.125 23.9167L15.0208 26.0208L16.435 27.4351ZM2.29289 14.7071L15.0208 27.4351L16.435 26.0208L3.70711 13.2929L2.29289 14.7071Z" fill="black" mask="url(#path-2-inside-1_1080_18796)"/>
<circle cx="12.7071" cy="20" r="0.5" transform="rotate(-45 12.7071 20)" fill="black"/>
<circle cx="13.9799" cy="18.7273" r="0.5" transform="rotate(-45 13.9799 18.7273)" fill="black"/>
<circle cx="15.2527" cy="17.4543" r="0.5" transform="rotate(-45 15.2527 17.4543)" fill="black"/>
<rect x="11" y="2" width="16" height="16" rx="8" fill="#EDEDED"/>
<path d="M16.6807 10.5527C16.6807 9.2832 16.8874 8.32292 17.3008 7.67188C17.7142 7.02083 18.3099 6.69531 19.0879 6.69531C20.582 6.69531 21.3291 7.92253 21.3291 10.377C21.3291 11.5879 21.1208 12.5156 20.7041 13.1602C20.2907 13.8014 19.6982 14.1221 18.9268 14.1221C18.1976 14.1221 17.641 13.8112 17.2568 13.1895C16.8727 12.5645 16.6807 11.6855 16.6807 10.5527ZM17.4717 10.5137C17.4717 12.4798 17.9844 13.4629 19.0098 13.4629C20.0286 13.4629 20.5381 12.4652 20.5381 10.4697C20.5381 8.39616 20.0417 7.35938 19.0488 7.35938C17.9974 7.35938 17.4717 8.41081 17.4717 10.5137Z" fill="white"/>
</svg>
