<svg width="28" height="28" viewBox="0 0 28 28" fill="none" xmlns="http://www.w3.org/2000/svg">
<path d="M18.9902 5.19011C18.7747 4.97455 18.4252 4.97455 18.2096 5.19011L16.6903 6.70945C16.4747 6.92502 16.4747 7.27452 16.6903 7.49009L20.5096 11.3094C20.7252 11.525 21.0747 11.525 21.2902 11.3094L22.8096 9.79006C23.0252 9.57449 23.0252 9.22499 22.8096 9.00942L18.9902 5.19011ZM14.3902 9.79005C14.1747 9.57448 13.8252 9.57448 13.6096 9.79005L6.00242 17.3971C5.92414 17.4754 5.8712 17.5754 5.85049 17.6842L4.95182 22.4021C4.87893 22.7848 5.21466 23.1205 5.59734 23.0477L10.3154 22.149C10.4241 22.1283 10.5241 22.0753 10.6024 21.9971L18.2096 14.39C18.4252 14.1744 18.4252 13.8249 18.2096 13.6094L14.3902 9.79005Z" fill="#F45145"/>
</svg>
