<svg width="24" height="24" viewBox="0 0 24 24" fill="none" xmlns="http://www.w3.org/2000/svg">
<circle cx="9.6" cy="7.9999" r="1.2" stroke="black" stroke-width="0.8"/>
<circle cx="10.4" cy="15.9999" r="1.2" stroke="black" stroke-width="0.8"/>
<circle cx="14.4" cy="11.9999" r="1.2" stroke="black" stroke-width="0.8"/>
<path fill-rule="evenodd" clip-rule="evenodd" d="M11.1496 8.39985C11.1825 8.272 11.2 8.13797 11.2 7.99985C11.2 7.86173 11.1825 7.7277 11.1496 7.59985H18V8.39985H11.1496ZM8.05041 8.39985H6V7.59985H8.05041C8.0175 7.7277 8 7.86173 8 7.99985C8 8.13797 8.0175 8.272 8.05041 8.39985ZM15.9496 12.3998H18V11.5998H15.9496C15.9825 11.7277 16 11.8617 16 11.9998C16 12.138 15.9825 12.272 15.9496 12.3998ZM12.8504 12.3998C12.8175 12.272 12.8 12.138 12.8 11.9998C12.8 11.8617 12.8175 11.7277 12.8504 11.5998H6V12.3998H12.8504ZM6 16.3998H8.85041C8.8175 16.272 8.8 16.138 8.8 15.9998C8.8 15.8617 8.8175 15.7277 8.85041 15.5998H6V16.3998ZM18 16.3998H11.9496C11.9825 16.272 12 16.138 12 15.9998C12 15.8617 11.9825 15.7277 11.9496 15.5998H18V16.3998Z" fill="black"/>
</svg>
