<svg width="22" height="23" viewBox="0 0 22 23" fill="none" xmlns="http://www.w3.org/2000/svg">
<path d="M16.1917 4.04004H5.80833C4.80962 4.04004 4 4.84966 4 5.84837V16.2317C4 17.2304 4.80962 18.04 5.80833 18.04H16.1917C17.1904 18.04 18 17.2304 18 16.2317V5.84837C18 4.84966 17.1904 4.04004 16.1917 4.04004Z" fill="#F45145"/>
<path d="M7.15938 6.28998L6.18498 8.79667C6.1563 8.87065 6.21028 8.95027 6.28956 8.95027H6.82371C6.88556 8.95027 6.93616 9.00053 6.93616 9.06321V15.4387C6.93616 15.5008 6.9862 15.5516 7.04862 15.5516H8.86473C8.92658 15.5516 8.97719 15.5013 8.97719 15.4387V6.3312C8.97719 6.26908 8.92714 6.21826 8.86473 6.21826H7.26396C7.21786 6.21826 7.17625 6.2465 7.15938 6.28998Z" fill="white"/>
<path d="M10.0277 6.21826H15.3933C15.4578 6.21826 15.5105 6.26909 15.5105 6.33121V7.92488C15.5105 7.987 15.4578 8.03783 15.3933 8.03783H12.0223C11.9579 8.03783 11.9051 8.08866 11.9051 8.15078V9.39545C11.9051 9.45757 11.9579 9.50839 12.0223 9.50839H15.3933C15.4578 9.50839 15.5105 9.55922 15.5105 9.62134V15.4386C15.5105 15.5008 15.4578 15.5516 15.3933 15.5516H10.0277C9.96326 15.5516 9.91052 15.5008 9.91052 15.4386V12.6636C9.91052 12.6014 9.96326 12.5506 10.0277 12.5506H11.8477C11.9122 12.5506 11.9649 12.6014 11.9649 12.6636V13.6479C11.9649 13.71 12.0176 13.7608 12.0821 13.7608H13.3026C13.3671 13.7608 13.4198 13.71 13.4198 13.6479V11.2184C13.4198 11.1563 13.3671 11.1055 13.3026 11.1055H10.0277C9.96326 11.1055 9.91052 11.0546 9.91052 10.9925V6.33121C9.91052 6.26909 9.96326 6.21826 10.0277 6.21826Z" fill="white"/>
</svg>
