<svg width="24" height="24" viewBox="0 0 24 24" fill="none" xmlns="http://www.w3.org/2000/svg">
<path fill-rule="evenodd" clip-rule="evenodd" d="M13.712 2.56198C13.1426 2.43379 12.5701 2.36401 12 2.36401C11.4299 2.36401 10.8574 2.43379 10.288 2.56198C1.12894 4.62437 4.15093 15.6175 11.499 21.4612C11.7923 21.6944 12.2077 21.6944 12.501 21.4612C19.8491 15.6175 22.8711 4.62436 13.712 2.56198ZM12.0243 13.8018C14.0125 13.8018 15.6243 12.19 15.6243 10.2018C15.6243 8.21358 14.0125 6.60181 12.0243 6.60181C10.0361 6.60181 8.42431 8.21358 8.42431 10.2018C8.42431 12.19 10.0361 13.8018 12.0243 13.8018Z" fill="#222222"/>
<path d="M13.712 2.56198L13.7631 2.33474V2.33474L13.712 2.56198ZM10.288 2.56198L10.2369 2.33474V2.33474L10.288 2.56198ZM11.499 21.4612L11.644 21.2789H11.644L11.499 21.4612ZM12.501 21.4612L12.356 21.2789H12.356L12.501 21.4612ZM12 2.59694C12.551 2.59694 13.1064 2.66439 13.6608 2.78922L13.7631 2.33474C13.1789 2.20318 12.5891 2.13108 12 2.13108V2.59694ZM10.3392 2.78922C10.8936 2.66439 11.449 2.59694 12 2.59694V2.13108C11.4109 2.13108 10.8211 2.20318 10.2369 2.33474L10.3392 2.78922ZM11.644 21.2789C8.00641 18.386 5.45306 14.2268 4.93396 10.5609C4.67486 8.73126 4.92413 7.04069 5.77699 5.68748C6.62766 4.33775 8.09744 3.29401 10.3392 2.78922L10.2369 2.33474C7.89909 2.86115 6.31196 3.96494 5.38288 5.43909C4.45599 6.90975 4.20267 8.71938 4.4727 10.6263C5.01183 14.4335 7.6435 18.6926 11.354 21.6435L11.644 21.2789ZM12.356 21.2789C12.1476 21.4446 11.8524 21.4446 11.644 21.2789L11.354 21.6435C11.7322 21.9442 12.2678 21.9442 12.646 21.6435L12.356 21.2789ZM13.6608 2.78922C15.9026 3.29401 17.3723 4.33775 18.223 5.68747C19.0759 7.04068 19.3251 8.73126 19.066 10.5609C18.5469 14.2268 15.9936 18.386 12.356 21.2789L12.646 21.6435C16.3565 18.6926 18.9882 14.4335 19.5273 10.6262C19.7973 8.71938 19.544 6.90974 18.6171 5.43908C17.688 3.96493 16.1009 2.86114 13.7631 2.33474L13.6608 2.78922ZM15.3914 10.2018C15.3914 12.0614 13.8839 13.5689 12.0243 13.5689V14.0347C14.1412 14.0347 15.8572 12.3187 15.8572 10.2018H15.3914ZM12.0243 6.83474C13.8839 6.83474 15.3914 8.34223 15.3914 10.2018H15.8572C15.8572 8.08494 14.1412 6.36888 12.0243 6.36888V6.83474ZM8.65724 10.2018C8.65724 8.34223 10.1647 6.83474 12.0243 6.83474V6.36888C9.90744 6.36888 8.19138 8.08494 8.19138 10.2018H8.65724ZM12.0243 13.5689C10.1647 13.5689 8.65724 12.0614 8.65724 10.2018H8.19138C8.19138 12.3187 9.90744 14.0347 12.0243 14.0347V13.5689Z" fill="#222222"/>
</svg>
