<svg width="28" height="28" viewBox="0 0 28 28" fill="none" xmlns="http://www.w3.org/2000/svg">
<path d="M4.55001 7.19995C3.79401 7.19995 3.20001 7.82555 3.20001 8.55995V19.44C3.20001 20.2016 3.82101 20.8 4.55001 20.8H18.05C18.806 20.8 19.4 20.2016 19.4 19.44V16.6996C19.4 16.2068 19.9966 15.961 20.3438 16.3107L21.9381 17.9168C22.0417 18.0212 22.1827 18.08 22.3298 18.08H24.248C24.5529 18.08 24.8 17.8328 24.8 17.528V10.472C24.8 10.1671 24.5529 9.91995 24.248 9.91995H22.3298C22.1827 9.91995 22.0417 9.97867 21.9381 10.0831L20.3438 11.6892C19.9966 12.0389 19.4 11.7931 19.4 11.3003V8.55995C19.4 7.79835 18.806 7.19995 18.05 7.19995H4.55001Z" fill="#F45145"/>
</svg>
